<!DOCTYPE svg PUBLIC "-//W3C//DTD SVG 1.1//EN" "http://www.w3.org/Graphics/SVG/1.1/DTD/svg11.dtd">

<!-- Uploaded to: SVG Repo, www.svgrepo.com, Transformed by: SVG Repo Mixer Tools -->
<svg fill="#ffffff" height="30px" width="30px" version="1.1" id="Layer_1" xmlns="http://www.w3.org/2000/svg" xmlns:xlink="http://www.w3.org/1999/xlink" viewBox="0 0 503.467 503.467" xml:space="preserve" stroke="#ffffff">

<g id="SVGRepo_bgCarrier" stroke-width="0"/>

<g id="SVGRepo_tracerCarrier" stroke-linecap="round" stroke-linejoin="round"/>

<g id="SVGRepo_iconCarrier"> <g> <g> <path d="M250.667,373.334h-35.2l24.533-25.6c8.533-8.533,8.533-21.333,0-29.867s-21.333-8.533-29.867,0L186.667,342.4v-34.133 c0-11.733-9.6-21.333-21.333-21.333S144,296.534,144,308.267V342.4l-23.467-24.533c-8.533-7.467-21.333-8.533-29.867,0 c-7.467,8.533-8.533,21.333,0,29.867l24.533,25.6H80c-11.733,0-21.333,9.6-21.333,21.333C58.667,406.4,68.267,416,80,416h34.133 l-23.467,24.533c-8.533,8.533-8.533,21.333,0,29.867c4.267,4.267,9.6,6.4,14.933,6.4c5.333,0,10.667-2.133,14.933-6.4L144,445.867 v35.2c0,11.733,9.6,21.333,21.333,21.333s20.267-9.6,21.333-21.333v-35.2l23.467,24.533c4.267,4.267,9.6,6.4,14.933,6.4 c5.333,0,10.667-2.133,14.933-6.4c7.467-8.533,8.533-21.333,0-29.867L216.534,416h34.133C262.4,416,272,406.4,272,394.667 C272,382.934,262.4,373.334,250.667,373.334z"/> </g> </g> <g> <g> <path d="M394.667,145.067c1.067-6.4,1.067-11.733,1.067-18.133c0-69.333-64-125.867-144-125.867s-144,56.533-144,125.867 c0,6.4,0,11.733,1.067,18.133C45.867,158.933,0,208,0,266.667c0,20.267,5.333,38.4,16,55.467c6.4,9.6,19.2,12.8,28.8,7.467 c9.6-6.4,12.8-19.2,7.467-28.8c-6.4-10.667-9.6-22.4-9.6-35.2c0-43.733,41.6-80,94.933-83.2c7.467,0,13.867-4.267,17.067-9.6 c3.2-5.333,3.2-12.8,1.067-19.2c-3.2-9.6-5.333-18.133-5.333-27.733c0-46.933,44.8-84.267,101.333-84.267 c55.467,0,101.333,38.4,101.333,84.267c0,9.6-1.067,19.2-5.333,27.733c-3.2,6.4-2.133,13.867,1.067,19.2 c4.267,5.333,10.667,9.6,17.067,9.6c53.333,2.133,94.933,39.466,94.933,83.2c0,20.267-8.533,39.467-24.533,54.4H296.534 c-11.733,0-21.333,9.6-21.333,21.333s9.6,21.333,21.333,21.333h147.2c4.267,0,9.6-2.133,14.933-5.334 c28.8-23.467,44.8-55.467,44.8-90.667C503.467,208,457.6,158.933,394.667,145.067z"/> </g> </g> </g>

</svg>